<?xml version="1.0" standalone="no"?>
<!DOCTYPE svg PUBLIC "-//W3C//DTD SVG 20010904//EN"
 "http://www.w3.org/TR/2001/REC-SVG-20010904/DTD/svg10.dtd">
<svg version="1.0" xmlns="http://www.w3.org/2000/svg"
 width="567.000000pt" height="567.000000pt" viewBox="0 0 567.000000 567.000000"
 preserveAspectRatio="xMidYMid meet">
<metadata>
Created by potrace 1.11, written by Peter Selinger 2001-2013
</metadata>
<g transform="translate(0.000000,567.000000) scale(0.100000,-0.100000)"
fill="#000000" stroke="none">
<path d="M2205 4874 c-180 -47 -338 -195 -397 -373 -19 -58 -22 -92 -24 -276
-2 -115 -3 -213 -4 -218 0 -4 -32 9 -70 28 -124 62 -166 77 -315 111 -79 18
-299 26 -366 14 -24 -5 -62 -11 -84 -14 -93 -15 -333 -104 -343 -128 -2 -5 -8
-8 -14 -8 -24 0 -169 -112 -248 -191 -169 -170 -282 -388 -324 -629 -19 -105
-15 -323 8 -429 50 -228 154 -419 321 -587 175 -176 388 -287 640 -331 17 -3
93 -6 170 -8 149 -3 245 11 383 55 95 31 261 112 270 133 2 4 10 7 18 7 8 0
14 4 14 8 0 4 15 16 32 27 96 56 277 274 350 420 30 59 84 215 92 265 14 86
25 182 30 265 7 112 11 134 43 215 94 237 315 391 563 392 41 0 93 -3 115 -7
87 -15 247 -93 284 -138 23 -28 23 -28 67 78 35 87 152 258 228 336 l36 37
-30 25 c-60 51 -176 114 -305 166 -154 61 -431 83 -605 47 -364 -74 -666 -306
-833 -641 -43 -86 -92 -233 -101 -299 -4 -27 -9 -53 -11 -57 -3 -4 -7 -58 -10
-121 -6 -141 -11 -176 -39 -254 -89 -245 -318 -406 -576 -405 -412 1 -699 390
-585 790 47 163 190 320 353 386 74 30 95 34 202 41 207 14 402 -80 527 -254
l51 -72 8 32 c29 132 126 336 219 460 80 106 214 233 318 301 l77 50 0 384 0
384 -42 -2 c-24 -2 -65 -8 -93 -15z"/>
<path d="M4408 4175 c-2 -2 -25 -6 -53 -9 -190 -25 -408 -131 -576 -281 -97
-87 -217 -247 -268 -360 -29 -63 -70 -185 -77 -233 -3 -21 -10 -57 -14 -82 -5
-25 -9 -580 -10 -1233 l0 -1189 72 6 c187 16 323 91 417 229 35 52 67 132 77
194 4 21 7 452 7 957 0 968 2 1011 45 1109 47 107 147 220 237 271 196 109
442 90 609 -46 106 -86 183 -211 207 -336 14 -76 7 -227 -15 -297 -34 -110
-138 -243 -241 -309 -120 -77 -172 -85 -541 -86 l-210 0 0 -275 0 -274 141 -3
c158 -3 482 7 535 17 223 43 434 157 602 328 210 214 308 448 313 752 4 215
-24 347 -108 520 -160 326 -479 563 -833 620 -80 13 -305 20 -316 10z"/>
<path d="M2403 2707 c0 -28 -57 -185 -94 -260 -40 -80 -140 -237 -165 -258 -8
-6 -14 -15 -14 -20 0 -13 139 -123 210 -166 192 -116 388 -171 608 -170 121 0
207 10 320 39 l42 10 0 309 c0 170 -2 309 -5 309 -3 0 -23 -11 -45 -25 -22
-14 -75 -37 -117 -52 -67 -23 -94 -27 -193 -26 -98 0 -126 4 -188 26 -41 14
-99 41 -129 59 -68 40 -164 134 -199 194 -28 48 -31 50 -31 31z"/>
</g>
</svg>
